:SAMPLES-PER-SECOND 30
:FULLY-SPECIFIED
:DEGREES
450
root  -30.9827 38.979 1.27782 6.57811 73.8656 14.1218
RightUpLeg  -15.8273 -8.61969 -8.3486
RightLeg  -0.041614 10.888 -0.969049
RightFoot  -3.64124 -0.919185 13.1976
RightToes  5.82063e-011 0 -3.6325e-017
Spine  9.44361 -0.861645 -0.299524
Spine1  7.52171 -0.0917827 -4.1984
HEad  -11.1973 12.8267 -6.46536
LeftShoulder1  0.165265 3.01713 -27.7941
LeftArm  0.653213 2.99516 -43.8843
LeftForeArm  22.1283 -34.5873 -6.44486
LeftHand  -0.0898263 1.14332 2.31279
RightShoulder  -0.428844 -4.83821 25.2289
RightArm  11.9148 -4.26414 44.7281
RightForeArm  5.02279 13.3958 5.53579
RightHand  -0.64282 5.27267 -7.29836
LeftUpLeg  12.4852 6.9374 -6.2416
LeftLeg  14.0985 -5.79643 -2.28027
LeftFoot  -17.5246 0.666516 10.3737
LeftToes  2.58842e-009 -1.78069e-010 3.24654e-012
451
root  -29.8388 38.7538 1.79671 6.33368 74.6549 14.2372
RightUpLeg  -15.5606 -8.47157 -8.04756
RightLeg  -2.62261 9.69614 -1.27156
RightFoot  -4.33738 -0.77369 12.1126
RightToes  5.82063e-011 0 -3.6325e-017
Spine  9.5725 -0.942397 0.652616
Spine1  7.68994 -0.0874189 -4.11645
HEad  -11.1683 13.2339 -6.91575
LeftShoulder1  0.141172 3.08933 -27.8919
LeftArm  1.04973 2.91471 -43.7505
LeftForeArm  21.3317 -33.484 -6.20495
LeftHand  -0.111811 0.944704 2.82437
RightShoulder  -0.438116 -4.84944 25.6625
RightArm  10.9483 -4.27682 44.196
RightForeArm  5.45918 11.7899 5.68169
RightHand  -0.703839 6.3565 -7.27567
LeftUpLeg  15.08 7.0853 -5.45444
LeftLeg  14.1284 -6.82796 -2.04267
LeftFoot  -19.1971 0.794632 9.84209
LeftToes  2.58842e-009 -1.78069e-010 3.24654e-012
452
root  -28.6309 38.4575 2.38317 6.14088 75.621 14.1233
RightUpLeg  -16.0562 -8.1781 -7.6162
RightLeg  0.347686 7.4966 -0.664204
RightFoot  -4.41448 -0.73243 11.4265
RightToes  5.82063e-011 0 -3.6325e-017
Spine  9.43765 -1.09546 1.43196
Spine1  7.92063 -0.278479 -3.82143
HEad  -11.2927 12.2149 -7.35869
LeftShoulder1  0.163254 3.02651 -28.0498
LeftArm  1.39844 3.50618 -43.5984
LeftForeArm  20.3214 -31.7197 -5.82252
LeftHand  -0.102118 1.02426 2.60567
RightShoulder  -0.436736 -4.83389 25.9305
RightArm  10.1764 -4.35054 44.0143
RightForeArm  6.63432 10.3849 5.71404
RightHand  -0.660708 6.41543 -6.82338
LeftUpLeg  17.1348 6.74625 -4.72297
LeftLeg  14.8622 -7.48262 -1.57803
LeftFoot  -21.0693 0.949655 9.66297
LeftToes  2.58842e-009 -1.78069e-010 3.24654e-012
453
root  -27.3731 38.2036 2.99921 4.66594 76.8845 12.3514
RightUpLeg  -16.7716 -7.56914 -6.81759
RightLeg  5.3374 5.63345 -0.031448
RightFoot  -1.52083 -0.787457 9.61139
RightToes  5.82063e-011 0 -3.6325e-017
Spine  8.92222 -1.19969 2.4093
Spine1  8.21128 -0.615696 -2.71248
HEad  -10.7992 12.2408 -7.84937
LeftShoulder1  0.125008 3.141 -28.3196
LeftArm  3.19262 4.13183 -43.4971
LeftForeArm  18.2982 -28.7994 -5.22349
LeftHand  -0.102819 0.743267 2.4811
RightShoulder  -0.486739 -4.99378 25.8356
RightArm  9.24387 -4.96141 44.0203
RightForeArm  8.40374 9.46425 5.49113
RightHand  -0.631827 5.65633 -6.94048
LeftUpLeg  18.8783 5.34178 -3.8376
LeftLeg  15.5612 -7.59832 -1.06809
LeftFoot  -22.6695 0.974902 8.41692
LeftToes  2.58842e-009 -1.78069e-010 3.24654e-012
454
root  -26.1208 38.1425 3.62798 0.573105 78.6084 7.74147
RightUpLeg  -17.8607 -7.15525 -5.57358
RightLeg  9.91996 4.08507 0.477531
RightFoot  5.21388 -0.743487 5.1643
RightToes  5.82063e-011 0 -3.6325e-017
Spine  8.54477 -1.56549 4.15951
Spine1  8.21651 -1.18956 -1.33386
HEad  -10.5975 11.5179 -8.21845
LeftShoulder1  0.0770422 3.2841 -28.9373
LeftArm  5.83149 4.99062 -42.9754
LeftForeArm  16.2134 -25.2318 -4.58918
LeftHand  -0.0636046 1.28413 1.63936
RightShoulder  -0.511117 -5.05889 26.0059
RightArm  8.41243 -6.05124 43.5761
RightForeArm  9.02898 9.44715 5.14561
RightHand  -0.541922 4.80534 -6.46069
LeftUpLeg  20.4894 2.73675 -2.39592
LeftLeg  15.7505 -7.27874 -1.05911
LeftFoot  -22.7423 0.748998 6.15351
LeftToes  2.58842e-009 -1.78069e-010 3.24654e-012
455
root  -24.7703 37.9679 4.28122 -7.35335 79.2017 -0.259842
RightUpLeg  -18.6763 -5.14123 -4.12857
RightLeg  15.8875 2.81485 0.622737
RightFoot  6.37096 -0.755993 5.11082
RightToes  5.82063e-011 0 -3.6325e-017
Spine  8.81625 -1.80431 7.32714
Spine1  7.84868 -1.02201 -2.03956
HEad  -10.7868 10.9457 -8.60597
LeftShoulder1  0.0327852 3.41153 -29.2826
LeftArm  6.99528 5.60675 -42.8139
LeftForeArm  15.4775 -20.4938 -4.72817
LeftHand  -0.0525419 1.7419 1.40789
RightShoulder  -0.626521 -5.35801 27.0941
RightArm  8.50892 -6.24883 42.5268
RightForeArm  8.84424 9.1907 5.14088
RightHand  -0.503774 4.14745 -6.39987
LeftUpLeg  21.4635 -0.382059 -0.913976
LeftLeg  18.7297 -5.8483 -1.64059
LeftFoot  -22.9043 0.463599 3.21396
LeftToes  2.58842e-009 -1.78069e-010 3.24654e-012
